<svg width="1600" height="900" viewBox="0 0 1600 900" fill="none" xmlns="http://www.w3.org/2000/svg" role="img" aria-label="COD Pro project preview">
  <defs>
    <linearGradient id="bg" x1="0" y1="0" x2="1600" y2="900" gradientUnits="userSpaceOnUse">
      <stop stop-color="#091126"/>
      <stop offset="1" stop-color="#05070D"/>
    </linearGradient>
    <linearGradient id="accent" x1="260" y1="160" x2="1400" y2="780" gradientUnits="userSpaceOnUse">
      <stop stop-color="#26D9D1" stop-opacity="0.54"/>
      <stop offset="1" stop-color="#7C8CFF" stop-opacity="0.58"/>
    </linearGradient>
    <filter id="blur" x="-40%" y="-40%" width="180%" height="180%">
      <feGaussianBlur stdDeviation="65"/>
    </filter>
  </defs>
  <rect width="1600" height="900" fill="url(#bg)"/>
  <g opacity="0.85" filter="url(#blur)">
    <circle cx="520" cy="280" r="240" fill="url(#accent)"/>
    <circle cx="1200" cy="680" r="300" fill="url(#accent)"/>
  </g>
  <rect x="120" y="120" width="1360" height="660" rx="28" fill="rgba(255,255,255,0.03)" stroke="rgba(248,250,252,0.12)"/>
  <rect x="160" y="170" width="380" height="16" rx="8" fill="rgba(248,250,252,0.12)"/>
  <rect x="160" y="205" width="620" height="12" rx="6" fill="rgba(248,250,252,0.08)"/>
  <g>
    <rect x="160" y="270" width="1280" height="110" rx="18" fill="rgba(255,255,255,0.03)" stroke="rgba(248,250,252,0.10)"/>
    <rect x="160" y="400" width="620" height="340" rx="18" fill="rgba(255,255,255,0.03)" stroke="rgba(248,250,252,0.10)"/>
    <rect x="820" y="400" width="620" height="160" rx="18" fill="rgba(255,255,255,0.03)" stroke="rgba(248,250,252,0.10)"/>
    <rect x="820" y="580" width="620" height="160" rx="18" fill="rgba(255,255,255,0.03)" stroke="rgba(248,250,252,0.10)"/>
  </g>
  <text x="160" y="140" fill="#F8FAFC" font-family="Inter, system-ui, -apple-system, Segoe UI, Roboto, Helvetica, Arial" font-size="18" font-weight="600" opacity="0.85">Case Study Preview</text>
  <text x="160" y="820" fill="#F8FAFC" font-family="Outfit, Inter, system-ui, -apple-system, Segoe UI, Roboto, Helvetica, Arial" font-size="42" font-weight="700">COD Pro Verification</text>
  <text x="160" y="860" fill="#F8FAFC" font-family="Inter, system-ui, -apple-system, Segoe UI, Roboto, Helvetica, Arial" font-size="20" font-weight="500" opacity="0.72">WhatsApp + email + call automation " risk reduction</text>
</svg>
