<svg width="1600" height="900" viewBox="0 0 1600 900" fill="none" xmlns="http://www.w3.org/2000/svg" role="img" aria-label="I-Car project preview">
  <defs>
    <linearGradient id="bg" x1="0" y1="0" x2="1600" y2="900" gradientUnits="userSpaceOnUse">
      <stop stop-color="#0B1020"/>
      <stop offset="1" stop-color="#05070D"/>
    </linearGradient>
    <linearGradient id="accent" x1="240" y1="160" x2="1360" y2="780" gradientUnits="userSpaceOnUse">
      <stop stop-color="#7C8CFF" stop-opacity="0.65"/>
      <stop offset="1" stop-color="#26D9D1" stop-opacity="0.55"/>
    </linearGradient>
    <filter id="blur" x="-40%" y="-40%" width="180%" height="180%">
      <feGaussianBlur stdDeviation="60"/>
    </filter>
  </defs>
  <rect width="1600" height="900" fill="url(#bg)"/>
  <g opacity="0.85" filter="url(#blur)">
    <circle cx="520" cy="250" r="220" fill="url(#accent)"/>
    <circle cx="1180" cy="640" r="260" fill="url(#accent)"/>
  </g>
  <g opacity="0.22">
    <path d="M0 120H1600" stroke="#F8FAFC" stroke-opacity="0.18"/>
    <path d="M0 260H1600" stroke="#F8FAFC" stroke-opacity="0.14"/>
    <path d="M0 400H1600" stroke="#F8FAFC" stroke-opacity="0.12"/>
    <path d="M0 540H1600" stroke="#F8FAFC" stroke-opacity="0.10"/>
    <path d="M0 680H1600" stroke="#F8FAFC" stroke-opacity="0.08"/>
    <path d="M260 0V900" stroke="#F8FAFC" stroke-opacity="0.10"/>
    <path d="M520 0V900" stroke="#F8FAFC" stroke-opacity="0.08"/>
    <path d="M780 0V900" stroke="#F8FAFC" stroke-opacity="0.06"/>
    <path d="M1040 0V900" stroke="#F8FAFC" stroke-opacity="0.08"/>
    <path d="M1300 0V900" stroke="#F8FAFC" stroke-opacity="0.10"/>
  </g>
  <rect x="120" y="120" width="1360" height="660" rx="28" fill="rgba(255,255,255,0.03)" stroke="rgba(248,250,252,0.12)"/>
  <rect x="160" y="170" width="420" height="16" rx="8" fill="rgba(248,250,252,0.12)"/>
  <rect x="160" y="205" width="620" height="12" rx="6" fill="rgba(248,250,252,0.08)"/>
  <rect x="160" y="235" width="560" height="12" rx="6" fill="rgba(248,250,252,0.06)"/>
  <g>
    <rect x="160" y="300" width="380" height="170" rx="18" fill="rgba(255,255,255,0.04)" stroke="rgba(248,250,252,0.10)"/>
    <rect x="560" y="300" width="420" height="170" rx="18" fill="rgba(255,255,255,0.04)" stroke="rgba(248,250,252,0.10)"/>
    <rect x="1000" y="300" width="440" height="170" rx="18" fill="rgba(255,255,255,0.04)" stroke="rgba(248,250,252,0.10)"/>
  </g>
  <g>
    <rect x="160" y="500" width="720" height="240" rx="18" fill="rgba(255,255,255,0.03)" stroke="rgba(248,250,252,0.10)"/>
    <rect x="900" y="500" width="540" height="240" rx="18" fill="rgba(255,255,255,0.03)" stroke="rgba(248,250,252,0.10)"/>
  </g>
  <text x="160" y="140" fill="#F8FAFC" font-family="Inter, system-ui, -apple-system, Segoe UI, Roboto, Helvetica, Arial" font-size="18" font-weight="600" opacity="0.85">Case Study Preview</text>
  <text x="160" y="820" fill="#F8FAFC" font-family="Outfit, Inter, system-ui, -apple-system, Segoe UI, Roboto, Helvetica, Arial" font-size="42" font-weight="700">ICar Price Evaluation Platform</text>
  <text x="160" y="860" fill="#F8FAFC" font-family="Inter, system-ui, -apple-system, Segoe UI, Roboto, Helvetica, Arial" font-size="20" font-weight="500" opacity="0.72">Realtime alerts " background jobs " multimarket data</text>
</svg>
