<svg width="1600" height="900" viewBox="0 0 1600 900" fill="none" xmlns="http://www.w3.org/2000/svg" role="img" aria-label="ProcureAI project preview">
  <defs>
    <linearGradient id="bg" x1="0" y1="0" x2="1600" y2="900" gradientUnits="userSpaceOnUse">
      <stop stop-color="#0A0F1F"/>
      <stop offset="1" stop-color="#05070D"/>
    </linearGradient>
    <linearGradient id="accent" x1="300" y1="110" x2="1380" y2="820" gradientUnits="userSpaceOnUse">
      <stop stop-color="#26D9D1" stop-opacity="0.55"/>
      <stop offset="1" stop-color="#7C8CFF" stop-opacity="0.60"/>
    </linearGradient>
    <filter id="blur" x="-40%" y="-40%" width="180%" height="180%">
      <feGaussianBlur stdDeviation="70"/>
    </filter>
  </defs>
  <rect width="1600" height="900" fill="url(#bg)"/>
  <g opacity="0.85" filter="url(#blur)">
    <circle cx="1180" cy="260" r="260" fill="url(#accent)"/>
    <circle cx="540" cy="700" r="320" fill="url(#accent)"/>
  </g>
  <rect x="120" y="120" width="1360" height="660" rx="28" fill="rgba(255,255,255,0.03)" stroke="rgba(248,250,252,0.12)"/>
  <rect x="160" y="170" width="500" height="16" rx="8" fill="rgba(248,250,252,0.12)"/>
  <rect x="160" y="205" width="680" height="12" rx="6" fill="rgba(248,250,252,0.08)"/>
  <rect x="160" y="235" width="600" height="12" rx="6" fill="rgba(248,250,252,0.06)"/>
  <g>
    <rect x="160" y="300" width="560" height="440" rx="18" fill="rgba(255,255,255,0.03)" stroke="rgba(248,250,252,0.10)"/>
    <rect x="740" y="300" width="700" height="210" rx="18" fill="rgba(255,255,255,0.03)" stroke="rgba(248,250,252,0.10)"/>
    <rect x="740" y="530" width="700" height="210" rx="18" fill="rgba(255,255,255,0.03)" stroke="rgba(248,250,252,0.10)"/>
  </g>
  <text x="160" y="140" fill="#F8FAFC" font-family="Inter, system-ui, -apple-system, Segoe UI, Roboto, Helvetica, Arial" font-size="18" font-weight="600" opacity="0.85">Case Study Preview</text>
  <text x="160" y="820" fill="#F8FAFC" font-family="Outfit, Inter, system-ui, -apple-system, Segoe UI, Roboto, Helvetica, Arial" font-size="42" font-weight="700">ProcureAI</text>
  <text x="160" y="860" fill="#F8FAFC" font-family="Inter, system-ui, -apple-system, Segoe UI, Roboto, Helvetica, Arial" font-size="20" font-weight="500" opacity="0.72">AI procurement " microservices " analytics dashboard</text>
</svg>
