<svg width="1600" height="900" viewBox="0 0 1600 900" fill="none" xmlns="http://www.w3.org/2000/svg" role="img" aria-label="Shopify Reviews — Merchant UX">
  <defs>
    <linearGradient id="bg2" x1="0" y1="0" x2="1600" y2="900" gradientUnits="userSpaceOnUse">
      <stop stop-color="#0a0c1a"/>
      <stop offset="1" stop-color="#05070D"/>
    </linearGradient>
    <linearGradient id="a2" x1="800" y1="0" x2="800" y2="900" gradientUnits="userSpaceOnUse">
      <stop stop-color="#7C8CFF" stop-opacity="0.45"/>
      <stop offset="1" stop-color="#3ecfcf" stop-opacity="0.3"/>
    </linearGradient>
    <filter id="glow2" x="-30%" y="-30%" width="160%" height="160%">
      <feGaussianBlur stdDeviation="70"/>
    </filter>
  </defs>
  <rect width="1600" height="900" fill="url(#bg2)"/>
  <ellipse cx="1100" cy="200" rx="380" ry="260" fill="url(#a2)" filter="url(#glow2)" opacity="0.7"/>
  <ellipse cx="400" cy="700" rx="300" ry="200" fill="url(#a2)" filter="url(#glow2)" opacity="0.5"/>
  <!-- Top bar -->
  <rect x="100" y="80" width="1400" height="60" rx="12" fill="rgba(255,255,255,0.04)" stroke="rgba(255,255,255,0.1)"/>
  <rect x="130" y="100" width="120" height="20" rx="6" fill="rgba(255,255,255,0.15)"/>
  <rect x="280" y="104" width="70" height="12" rx="4" fill="rgba(255,255,255,0.07)"/>
  <rect x="370" y="104" width="70" height="12" rx="4" fill="rgba(255,255,255,0.07)"/>
  <!-- Review list rows -->
  <rect x="100" y="165" width="680" height="90" rx="12" fill="rgba(255,255,255,0.04)" stroke="rgba(255,255,255,0.08)"/>
  <rect x="130" y="185" width="200" height="14" rx="5" fill="rgba(255,255,255,0.12)"/>
  <rect x="130" y="210" width="320" height="10" rx="4" fill="rgba(255,255,255,0.07)"/>
  <rect x="130" y="228" width="140" height="10" rx="4" fill="rgba(124,140,255,0.3)"/>

  <rect x="100" y="270" width="680" height="90" rx="12" fill="rgba(255,255,255,0.04)" stroke="rgba(255,255,255,0.08)"/>
  <rect x="130" y="290" width="180" height="14" rx="5" fill="rgba(255,255,255,0.12)"/>
  <rect x="130" y="315" width="290" height="10" rx="4" fill="rgba(255,255,255,0.07)"/>
  <rect x="130" y="333" width="110" height="10" rx="4" fill="rgba(62,207,207,0.35)"/>

  <rect x="100" y="375" width="680" height="90" rx="12" fill="rgba(255,255,255,0.04)" stroke="rgba(255,255,255,0.08)"/>
  <rect x="130" y="395" width="230" height="14" rx="5" fill="rgba(255,255,255,0.12)"/>
  <rect x="130" y="420" width="350" height="10" rx="4" fill="rgba(255,255,255,0.07)"/>
  <rect x="130" y="438" width="90" height="10" rx="4" fill="rgba(124,140,255,0.3)"/>

  <!-- Right panel: stats -->
  <rect x="810" y="165" width="690" height="300" rx="14" fill="rgba(255,255,255,0.03)" stroke="rgba(255,255,255,0.09)"/>
  <rect x="840" y="195" width="160" height="14" rx="5" fill="rgba(255,255,255,0.1)"/>
  <rect x="840" y="225" width="80" height="36" rx="8" fill="rgba(124,140,255,0.2)"/>
  <rect x="840" y="275" width="300" height="10" rx="4" fill="rgba(255,255,255,0.06)"/>
  <rect x="840" y="293" width="250" height="10" rx="4" fill="rgba(255,255,255,0.06)"/>
  <rect x="840" y="311" width="200" height="10" rx="4" fill="rgba(255,255,255,0.06)"/>
  <rect x="840" y="340" width="600" height="1" fill="rgba(255,255,255,0.06)"/>
  <rect x="840" y="360" width="120" height="10" rx="4" fill="rgba(62,207,207,0.25)"/>
  <rect x="980" y="360" width="120" height="10" rx="4" fill="rgba(124,140,255,0.25)"/>
  <rect x="840" y="385" width="580" height="10" rx="4" fill="rgba(255,255,255,0.05)"/>
  <rect x="840" y="403" width="440" height="10" rx="4" fill="rgba(255,255,255,0.05)"/>

  <!-- Bottom bulk actions bar -->
  <rect x="100" y="510" width="680" height="52" rx="10" fill="rgba(124,140,255,0.08)" stroke="rgba(124,140,255,0.2)"/>
  <rect x="130" y="528" width="80" height="14" rx="5" fill="rgba(124,140,255,0.4)"/>
  <rect x="230" y="528" width="80" height="14" rx="5" fill="rgba(255,255,255,0.08)"/>
  <rect x="330" y="528" width="80" height="14" rx="5" fill="rgba(255,255,255,0.08)"/>

  <text x="100" y="620" fill="#F8FAFC" font-family="Inter, system-ui, sans-serif" font-size="14" font-weight="600" opacity="0.5">MERCHANT DASHBOARD</text>
  <text x="100" y="660" fill="#F8FAFC" font-family="Inter, system-ui, sans-serif" font-size="38" font-weight="700">Review Triage &amp; Publishing</text>
  <text x="100" y="700" fill="#F8FAFC" font-family="Inter, system-ui, sans-serif" font-size="18" opacity="0.55">Fast merchant UX — bulk approve, reject, and publish reviews</text>
</svg>
