<svg width="1600" height="900" viewBox="0 0 1600 900" fill="none" xmlns="http://www.w3.org/2000/svg" role="img" aria-label="Shopify Reviews project preview">
  <defs>
    <linearGradient id="bg" x1="0" y1="0" x2="1600" y2="900" gradientUnits="userSpaceOnUse">
      <stop stop-color="#081024"/>
      <stop offset="1" stop-color="#05070D"/>
    </linearGradient>
    <linearGradient id="accent" x1="260" y1="140" x2="1360" y2="780" gradientUnits="userSpaceOnUse">
      <stop stop-color="#7C8CFF" stop-opacity="0.58"/>
      <stop offset="1" stop-color="#26D9D1" stop-opacity="0.52"/>
    </linearGradient>
    <filter id="blur" x="-40%" y="-40%" width="180%" height="180%">
      <feGaussianBlur stdDeviation="65"/>
    </filter>
  </defs>
  <rect width="1600" height="900" fill="url(#bg)"/>
  <g opacity="0.85" filter="url(#blur)">
    <circle cx="520" cy="640" r="320" fill="url(#accent)"/>
    <circle cx="1180" cy="300" r="240" fill="url(#accent)"/>
  </g>
  <rect x="120" y="120" width="1360" height="660" rx="28" fill="rgba(255,255,255,0.03)" stroke="rgba(248,250,252,0.12)"/>
  <rect x="160" y="170" width="420" height="16" rx="8" fill="rgba(248,250,252,0.12)"/>
  <rect x="160" y="205" width="640" height="12" rx="6" fill="rgba(248,250,252,0.08)"/>
  <g>
    <rect x="160" y="270" width="780" height="470" rx="18" fill="rgba(255,255,255,0.03)" stroke="rgba(248,250,252,0.10)"/>
    <rect x="970" y="270" width="470" height="160" rx="18" fill="rgba(255,255,255,0.03)" stroke="rgba(248,250,252,0.10)"/>
    <rect x="970" y="450" width="470" height="140" rx="18" fill="rgba(255,255,255,0.03)" stroke="rgba(248,250,252,0.10)"/>
    <rect x="970" y="610" width="470" height="130" rx="18" fill="rgba(255,255,255,0.03)" stroke="rgba(248,250,252,0.10)"/>
  </g>
  <text x="160" y="140" fill="#F8FAFC" font-family="Inter, system-ui, -apple-system, Segoe UI, Roboto, Helvetica, Arial" font-size="18" font-weight="600" opacity="0.85">Case Study Preview</text>
  <text x="160" y="820" fill="#F8FAFC" font-family="Outfit, Inter, system-ui, -apple-system, Segoe UI, Roboto, Helvetica, Arial" font-size="42" font-weight="700">Shopify Product Reviews App</text>
  <text x="160" y="860" fill="#F8FAFC" font-family="Inter, system-ui, -apple-system, Segoe UI, Roboto, Helvetica, Arial" font-size="20" font-weight="500" opacity="0.72">Merchant moderation " embedded admin UX</text>
</svg>
